<svg width="134" height="24" viewBox="0 0 134 24" fill="none" xmlns="http://www.w3.org/2000/svg">
<g clip-path="url(#clip0_2308_1016)">
<mask id="mask0_2308_1016" style="mask-type:luminance" maskUnits="userSpaceOnUse" x="0" y="0" width="134" height="24">
<path d="M133.971 0H0V23.9738H133.971V0Z" fill="white"/>
</mask>
<g mask="url(#mask0_2308_1016)">
<path d="M100.613 13.7918H112.132C112.132 13.7918 111.01 8.27023 106.248 8.56089C101.486 8.85161 100.613 13.7918 100.613 13.7918Z" fill="#FFD41D"/>
<path d="M55.918 5.99805H76.3257L70.4352 18.5286L65.66 9.78162L60.7889 18.2107L55.918 5.99805Z" fill="#FFD41D"/>
<path d="M29.4141 0.113281V23.5277H15.997L15.2771 22.4222L12.7344 18.5301V0.113281H29.4141Z" fill="#FFD41D"/>
<path d="M25.731 0.113281V15.9327L15.2765 0.113281H10.9375V15.7761L12.7338 18.5301L15.2765 22.4222V7.70502L25.731 23.5277H30.0701V0.113281H25.731Z" fill="black"/>
<path d="M47.1392 12.8971C46.8429 11.8103 46.2731 10.9635 45.4289 10.3573C44.5841 9.75091 43.6126 9.44795 42.5149 9.44795C41.3748 9.44795 40.3663 9.76194 39.4905 10.3889C38.6137 11.0159 37.9962 11.8519 37.6375 12.8971H47.1392ZM51.5413 14.7698V15.2429C51.5413 15.6851 51.51 16.1476 51.4462 16.6311H37.7009C37.9752 17.6766 38.5294 18.5127 39.3635 19.1396C40.1974 19.767 41.1738 20.0803 42.2933 20.0803C43.0321 20.0803 43.7186 19.9665 44.3518 19.739C45.1119 19.4496 45.7345 19.0255 46.2207 18.4668H50.9717C50.1902 20.2921 49.0338 21.6822 47.5035 22.6362C45.9721 23.5898 44.2888 24.0676 42.4519 24.0676C39.5378 24.0676 37.2047 23.0377 35.4521 20.977C33.9321 19.1896 33.1719 17.1612 33.1719 14.8903C33.1719 12.5778 33.9321 10.5071 35.4521 8.67775C37.2257 6.53308 39.5799 5.46094 42.5149 5.46094C45.1757 5.46094 47.3448 6.34963 49.0235 8.12732C50.7021 9.90507 51.5413 12.119 51.5413 14.7698Z" fill="black"/>
<path d="M77.3226 5.99707L70.9881 23.528H68.3915L65.0659 12.1677L61.7402 23.528H59.1429L52.8086 5.99707H57.2743L60.505 16.6928L63.4189 5.99707H66.7129L69.6261 16.6928L72.8568 5.99707H77.3226Z" fill="black"/>
<path d="M111.124 12.8971C110.827 11.8103 110.257 10.9635 109.413 10.3573C108.568 9.75091 107.597 9.44795 106.5 9.44795C105.359 9.44795 104.35 9.76194 103.474 10.3889C102.598 11.0159 101.98 11.8519 101.622 12.8971H111.124ZM115.526 14.7698V15.2429C115.526 15.6851 115.494 16.1476 115.43 16.6311H101.685C101.96 17.6766 102.514 18.5127 103.348 19.1396C104.182 19.767 105.158 20.0803 106.277 20.0803C107.016 20.0803 107.703 19.9665 108.336 19.739C109.096 19.4496 109.719 19.0255 110.205 18.4668H114.956C114.175 20.2921 113.018 21.6822 111.488 22.6362C109.957 23.5898 108.273 24.0676 106.436 24.0676C103.522 24.0676 101.188 23.0377 99.4367 20.977C97.9164 19.1896 97.1562 17.1612 97.1562 14.8903C97.1562 12.5778 97.9164 10.5071 99.4367 8.67775C101.21 6.53308 103.564 5.46094 106.5 5.46094C109.16 5.46094 111.329 6.34963 113.008 8.12732C114.686 9.90507 115.526 12.119 115.526 14.7698Z" fill="black"/>
<path d="M134.085 23.5289H128.891L125.344 17.8644L121.797 23.5289H116.602L122.525 14.5417L117.077 5.99805H121.987L125.312 11.251L128.637 5.99805H133.546L127.973 14.5417L134.085 23.5289Z" fill="black"/>
<path d="M14.8299 23.5285H4.66211V7.95215L10.8308 17.4018L12.6271 20.1519L14.6567 23.2621L14.8299 23.5285Z" fill="#FFD41D"/>
<path d="M10.9373 0.113281V15.7761L0.712891 0.113281H10.9373Z" fill="#FFD41D"/>
<path d="M92.2538 23.5282L84.3965 23.5291V23.5268L84.3989 11.6016L86.0928 14.1635L89.9106 19.9754L92.2513 23.5242L92.2538 23.5282Z" fill="#FFD41D"/>
<path d="M89.9097 19.975H84.3785V0.113281H80.2324V23.5277H92.2528L89.9097 19.975ZM90.9293 19.975L93.2755 23.5277H96.4683V19.975H90.9293Z" fill="black"/>
</g>
</g>
<defs>
<clipPath id="clip0_2308_1016">
<rect width="134" height="23.9738" fill="white"/>
</clipPath>
</defs>
</svg>
