<svg width="14" height="14" viewBox="0 0 14 14" fill="none" xmlns="http://www.w3.org/2000/svg">
<g clip-path="url(#clip0_2308_1058)">
<path d="M6.81421 0.186332C2.7581 0.398276 0.0805995 3.57939 0.249766 7.59078C0.323655 9.34661 1.02949 10.8574 1.19671 12.5238C1.23949 12.9555 1.11504 13.4883 1.61282 13.6769C2.22532 13.9083 3.16449 13.5194 3.67782 13.1636C3.85282 13.0449 4.02004 12.9069 4.14838 12.7358C4.67921 13.0877 5.18282 13.428 5.81477 13.5797C8.59727 14.2466 11.6462 12.7202 13.0014 10.2683C15.5487 5.66189 12.105 -0.0897796 6.81421 0.186332ZM5.23921 9.79967C5.01949 9.97078 4.80754 10.2041 4.56449 10.3383C4.21254 10.5269 4.10366 10.3305 3.97143 10.0194C3.55532 9.02966 3.50477 7.34383 3.74782 6.30744C4.07449 4.89772 5.16532 3.65717 6.66449 3.52494C8.18116 3.39078 9.58893 4.16078 10.2248 5.55105C11.6325 8.64467 8.02949 11.6994 5.23921 9.80161V9.79967Z" fill="#FFD41D"/>
</g>
<defs>
<clipPath id="clip0_2308_1058">
<rect width="14" height="14" fill="white"/>
</clipPath>
</defs>
</svg>
